<mxfile host="app.diagrams.net" agent="Mozilla/5.0 (Macintosh; Intel Mac OS X 10_15_7) AppleWebKit/537.36 (KHTML, like Gecko) Chrome/139.0.0.0 Safari/537.36" version="28.2.1">
  <diagram name="Page-1" id="OyXV5C7ipJChDfGhWmq_">
    <mxGraphModel dx="1018" dy="689" grid="1" gridSize="10" guides="1" tooltips="1" connect="1" arrows="1" fold="1" page="1" pageScale="1" pageWidth="850" pageHeight="1100" math="0" shadow="0">
      <root>
        <mxCell id="0" />
        <mxCell id="1" parent="0" />
        <mxCell id="Vbb7sRWDn7843nfP0c7h-5" value="Public subnet" style="points=[[0,0],[0.25,0],[0.5,0],[0.75,0],[1,0],[1,0.25],[1,0.5],[1,0.75],[1,1],[0.75,1],[0.5,1],[0.25,1],[0,1],[0,0.75],[0,0.5],[0,0.25]];outlineConnect=0;gradientColor=none;html=1;whiteSpace=wrap;fontSize=12;fontStyle=0;container=1;pointerEvents=0;collapsible=0;recursiveResize=0;shape=mxgraph.aws4.group;grIcon=mxgraph.aws4.group_security_group;grStroke=0;strokeColor=#7AA116;fillColor=#F2F6E8;verticalAlign=top;align=left;spacingLeft=30;fontColor=#248814;dashed=0;" vertex="1" parent="1">
          <mxGeometry x="190" y="210" width="220" height="380" as="geometry" />
        </mxCell>
        <mxCell id="Vbb7sRWDn7843nfP0c7h-6" value="Private subnet" style="points=[[0,0],[0.25,0],[0.5,0],[0.75,0],[1,0],[1,0.25],[1,0.5],[1,0.75],[1,1],[0.75,1],[0.5,1],[0.25,1],[0,1],[0,0.75],[0,0.5],[0,0.25]];outlineConnect=0;gradientColor=none;html=1;whiteSpace=wrap;fontSize=12;fontStyle=0;container=1;pointerEvents=0;collapsible=0;recursiveResize=0;shape=mxgraph.aws4.group;grIcon=mxgraph.aws4.group_security_group;grStroke=0;strokeColor=#00A4A6;fillColor=#E6F6F7;verticalAlign=top;align=left;spacingLeft=30;fontColor=#147EBA;dashed=0;" vertex="1" parent="1">
          <mxGeometry x="470" y="210" width="230" height="380" as="geometry" />
        </mxCell>
        <mxCell id="Vbb7sRWDn7843nfP0c7h-13" value="VPC" style="sketch=0;outlineConnect=0;gradientColor=none;html=1;whiteSpace=wrap;fontSize=12;fontStyle=0;shape=mxgraph.aws4.group;grIcon=mxgraph.aws4.group_vpc;strokeColor=#879196;fillColor=none;verticalAlign=top;align=left;spacingLeft=30;fontColor=#879196;dashed=0;" vertex="1" parent="1">
          <mxGeometry x="150" y="170" width="580" height="450" as="geometry" />
        </mxCell>
        <mxCell id="Vbb7sRWDn7843nfP0c7h-17" value="" style="edgeStyle=orthogonalEdgeStyle;rounded=0;orthogonalLoop=1;jettySize=auto;html=1;flowAnimation=1;" edge="1" parent="1" source="Vbb7sRWDn7843nfP0c7h-14" target="Vbb7sRWDn7843nfP0c7h-15">
          <mxGeometry relative="1" as="geometry" />
        </mxCell>
        <mxCell id="Vbb7sRWDn7843nfP0c7h-14" value="" style="sketch=0;outlineConnect=0;fontColor=#232F3E;gradientColor=none;fillColor=#8C4FFF;strokeColor=none;dashed=0;verticalLabelPosition=bottom;verticalAlign=top;align=center;html=1;fontSize=12;fontStyle=0;aspect=fixed;pointerEvents=1;shape=mxgraph.aws4.internet_gateway;" vertex="1" parent="1">
          <mxGeometry x="120" y="340" width="70" height="70" as="geometry" />
        </mxCell>
        <mxCell id="Vbb7sRWDn7843nfP0c7h-15" value="" style="shape=image;html=1;verticalAlign=top;verticalLabelPosition=bottom;labelBackgroundColor=#ffffff;imageAspect=0;aspect=fixed;image=https://icons.diagrams.net/icon-cache1/WHCompare_Isometric_Web_Hosting___Servers-2190/connected-globe-603.svg" vertex="1" parent="1">
          <mxGeometry x="30" y="350" width="50" height="50" as="geometry" />
        </mxCell>
        <mxCell id="Vbb7sRWDn7843nfP0c7h-21" style="edgeStyle=orthogonalEdgeStyle;rounded=0;orthogonalLoop=1;jettySize=auto;html=1;flowAnimation=1;" edge="1" parent="1" source="Vbb7sRWDn7843nfP0c7h-20" target="Vbb7sRWDn7843nfP0c7h-14">
          <mxGeometry relative="1" as="geometry" />
        </mxCell>
        <mxCell id="Vbb7sRWDn7843nfP0c7h-20" value="" style="sketch=0;outlineConnect=0;fontColor=#232F3E;gradientColor=none;fillColor=#8C4FFF;strokeColor=none;dashed=0;verticalLabelPosition=bottom;verticalAlign=top;align=center;html=1;fontSize=12;fontStyle=0;aspect=fixed;pointerEvents=1;shape=mxgraph.aws4.nat_gateway;" vertex="1" parent="1">
          <mxGeometry x="280" y="336" width="78" height="78" as="geometry" />
        </mxCell>
        <mxCell id="Vbb7sRWDn7843nfP0c7h-23" style="edgeStyle=orthogonalEdgeStyle;rounded=0;orthogonalLoop=1;jettySize=auto;html=1;flowAnimation=1;" edge="1" parent="1" source="Vbb7sRWDn7843nfP0c7h-22" target="Vbb7sRWDn7843nfP0c7h-20">
          <mxGeometry relative="1" as="geometry" />
        </mxCell>
        <mxCell id="Vbb7sRWDn7843nfP0c7h-22" value="" style="sketch=0;points=[[0,0,0],[0.25,0,0],[0.5,0,0],[0.75,0,0],[1,0,0],[0,1,0],[0.25,1,0],[0.5,1,0],[0.75,1,0],[1,1,0],[0,0.25,0],[0,0.5,0],[0,0.75,0],[1,0.25,0],[1,0.5,0],[1,0.75,0]];outlineConnect=0;fontColor=#232F3E;fillColor=#ED7100;strokeColor=#ffffff;dashed=0;verticalLabelPosition=bottom;verticalAlign=top;align=center;html=1;fontSize=12;fontStyle=0;aspect=fixed;shape=mxgraph.aws4.resourceIcon;resIcon=mxgraph.aws4.ec2;" vertex="1" parent="1">
          <mxGeometry x="560" y="336" width="78" height="78" as="geometry" />
        </mxCell>
        <mxCell id="Vbb7sRWDn7843nfP0c7h-24" value="10.0.0.0/16" style="text;html=1;align=center;verticalAlign=middle;whiteSpace=wrap;rounded=0;" vertex="1" parent="1">
          <mxGeometry x="220" y="170" width="60" height="30" as="geometry" />
        </mxCell>
        <mxCell id="Vbb7sRWDn7843nfP0c7h-25" value="10.0.0.0/20" style="text;html=1;align=center;verticalAlign=middle;whiteSpace=wrap;rounded=0;" vertex="1" parent="1">
          <mxGeometry x="220" y="230" width="60" height="30" as="geometry" />
        </mxCell>
        <mxCell id="Vbb7sRWDn7843nfP0c7h-26" value="10.0.1.0/20" style="text;html=1;align=center;verticalAlign=middle;whiteSpace=wrap;rounded=0;" vertex="1" parent="1">
          <mxGeometry x="510" y="230" width="60" height="30" as="geometry" />
        </mxCell>
        <mxCell id="Vbb7sRWDn7843nfP0c7h-27" value="10.0.1.11" style="text;html=1;align=center;verticalAlign=middle;whiteSpace=wrap;rounded=0;" vertex="1" parent="1">
          <mxGeometry x="569" y="410" width="60" height="30" as="geometry" />
        </mxCell>
        <mxCell id="Vbb7sRWDn7843nfP0c7h-28" value="&lt;span style=&quot;font-family: Times; font-size: 14px; text-align: start; white-space: pre;&quot;&gt;13.233.232.148&lt;/span&gt;" style="text;html=1;align=center;verticalAlign=middle;whiteSpace=wrap;rounded=0;" vertex="1" parent="1">
          <mxGeometry x="289" y="430" width="60" height="30" as="geometry" />
        </mxCell>
        <mxCell id="Vbb7sRWDn7843nfP0c7h-29" value="ping google.com" style="text;html=1;align=center;verticalAlign=middle;whiteSpace=wrap;rounded=0;" vertex="1" parent="1">
          <mxGeometry x="548.5" y="430" width="101" height="30" as="geometry" />
        </mxCell>
        <mxCell id="Vbb7sRWDn7843nfP0c7h-30" value="IPv4 to IPV4" style="text;html=1;align=center;verticalAlign=middle;whiteSpace=wrap;rounded=0;fontSize=18;" vertex="1" parent="1">
          <mxGeometry x="370" y="330" width="140" height="40" as="geometry" />
        </mxCell>
        <mxCell id="Vbb7sRWDn7843nfP0c7h-32" value="NAT Gateway" style="text;html=1;align=center;verticalAlign=middle;whiteSpace=wrap;rounded=0;" vertex="1" parent="1">
          <mxGeometry x="280" y="410" width="80" height="30" as="geometry" />
        </mxCell>
        <mxCell id="Vbb7sRWDn7843nfP0c7h-33" value="IGW" style="text;html=1;align=center;verticalAlign=middle;whiteSpace=wrap;rounded=0;fontSize=18;" vertex="1" parent="1">
          <mxGeometry x="120" y="410" width="60" height="30" as="geometry" />
        </mxCell>
        <mxCell id="Vbb7sRWDn7843nfP0c7h-35" value="&lt;font style=&quot;color: rgb(255, 39, 6);&quot;&gt;No Inbound trafffic&lt;/font&gt;" style="text;html=1;align=center;verticalAlign=middle;whiteSpace=wrap;rounded=0;fontSize=14;" vertex="1" parent="1">
          <mxGeometry y="310" width="130" height="30" as="geometry" />
        </mxCell>
        <mxCell id="Vbb7sRWDn7843nfP0c7h-36" value="&lt;span style=&quot;color: rgba(0, 0, 0, 0); font-family: monospace; font-size: 0px; text-align: start;&quot;&gt;%3CmxGraphModel%3E%3Croot%3E%3CmxCell%20id%3D%220%22%2F%3E%3CmxCell%20id%3D%221%22%20parent%3D%220%22%2F%3E%3CmxCell%20id%3D%222%22%20value%3D%22Public%20subnet%22%20style%3D%22points%3D%5B%5B0%2C0%5D%2C%5B0.25%2C0%5D%2C%5B0.5%2C0%5D%2C%5B0.75%2C0%5D%2C%5B1%2C0%5D%2C%5B1%2C0.25%5D%2C%5B1%2C0.5%5D%2C%5B1%2C0.75%5D%2C%5B1%2C1%5D%2C%5B0.75%2C1%5D%2C%5B0.5%2C1%5D%2C%5B0.25%2C1%5D%2C%5B0%2C1%5D%2C%5B0%2C0.75%5D%2C%5B0%2C0.5%5D%2C%5B0%2C0.25%5D%5D%3BoutlineConnect%3D0%3BgradientColor%3Dnone%3Bhtml%3D1%3BwhiteSpace%3Dwrap%3BfontSize%3D12%3BfontStyle%3D0%3Bcontainer%3D1%3BpointerEvents%3D0%3Bcollapsible%3D0%3BrecursiveResize%3D0%3Bshape%3Dmxgraph.aws4.group%3BgrIcon%3Dmxgraph.aws4.group_security_group%3BgrStroke%3D0%3BstrokeColor%3D%237AA116%3BfillColor%3D%23F2F6E8%3BverticalAlign%3Dtop%3Balign%3Dleft%3BspacingLeft%3D30%3BfontColor%3D%23248814%3Bdashed%3D0%3B%22%20vertex%3D%221%22%20parent%3D%221%22%3E%3CmxGeometry%20x%3D%22190%22%20y%3D%22210%22%20width%3D%22220%22%20height%3D%22380%22%20as%3D%22geometry%22%2F%3E%3C%2FmxCell%3E%3CmxCell%20id%3D%223%22%20value%3D%22Private%20subnet%22%20style%3D%22points%3D%5B%5B0%2C0%5D%2C%5B0.25%2C0%5D%2C%5B0.5%2C0%5D%2C%5B0.75%2C0%5D%2C%5B1%2C0%5D%2C%5B1%2C0.25%5D%2C%5B1%2C0.5%5D%2C%5B1%2C0.75%5D%2C%5B1%2C1%5D%2C%5B0.75%2C1%5D%2C%5B0.5%2C1%5D%2C%5B0.25%2C1%5D%2C%5B0%2C1%5D%2C%5B0%2C0.75%5D%2C%5B0%2C0.5%5D%2C%5B0%2C0.25%5D%5D%3BoutlineConnect%3D0%3BgradientColor%3Dnone%3Bhtml%3D1%3BwhiteSpace%3Dwrap%3BfontSize%3D12%3BfontStyle%3D0%3Bcontainer%3D1%3BpointerEvents%3D0%3Bcollapsible%3D0%3BrecursiveResize%3D0%3Bshape%3Dmxgraph.aws4.group%3BgrIcon%3Dmxgraph.aws4.group_security_group%3BgrStroke%3D0%3BstrokeColor%3D%2300A4A6%3BfillColor%3D%23E6F6F7%3BverticalAlign%3Dtop%3Balign%3Dleft%3BspacingLeft%3D30%3BfontColor%3D%23147EBA%3Bdashed%3D0%3B%22%20vertex%3D%221%22%20parent%3D%221%22%3E%3CmxGeometry%20x%3D%22470%22%20y%3D%22210%22%20width%3D%22230%22%20height%3D%22380%22%20as%3D%22geometry%22%2F%3E%3C%2FmxCell%3E%3CmxCell%20id%3D%224%22%20value%3D%22VPC%22%20style%3D%22sketch%3D0%3BoutlineConnect%3D0%3BgradientColor%3Dnone%3Bhtml%3D1%3BwhiteSpace%3Dwrap%3BfontSize%3D12%3BfontStyle%3D0%3Bshape%3Dmxgraph.aws4.group%3BgrIcon%3Dmxgraph.aws4.group_vpc%3BstrokeColor%3D%23879196%3BfillColor%3Dnone%3BverticalAlign%3Dtop%3Balign%3Dleft%3BspacingLeft%3D30%3BfontColor%3D%23879196%3Bdashed%3D0%3B%22%20vertex%3D%221%22%20parent%3D%221%22%3E%3CmxGeometry%20x%3D%22150%22%20y%3D%22170%22%20width%3D%22580%22%20height%3D%22450%22%20as%3D%22geometry%22%2F%3E%3C%2FmxCell%3E%3CmxCell%20id%3D%225%22%20value%3D%22%22%20style%3D%22edgeStyle%3DorthogonalEdgeStyle%3Brounded%3D0%3BorthogonalLoop%3D1%3BjettySize%3Dauto%3Bhtml%3D1%3BflowAnimation%3D1%3B%22%20edge%3D%221%22%20source%3D%226%22%20target%3D%227%22%20parent%3D%221%22%3E%3CmxGeometry%20relative%3D%221%22%20as%3D%22geometry%22%2F%3E%3C%2FmxCell%3E%3CmxCell%20id%3D%226%22%20value%3D%22%22%20style%3D%22sketch%3D0%3BoutlineConnect%3D0%3BfontColor%3D%23232F3E%3BgradientColor%3Dnone%3BfillColor%3D%238C4FFF%3BstrokeColor%3Dnone%3Bdashed%3D0%3BverticalLabelPosition%3Dbottom%3BverticalAlign%3Dtop%3Balign%3Dcenter%3Bhtml%3D1%3BfontSize%3D12%3BfontStyle%3D0%3Baspect%3Dfixed%3BpointerEvents%3D1%3Bshape%3Dmxgraph.aws4.internet_gateway%3B%22%20vertex%3D%221%22%20parent%3D%221%22%3E%3CmxGeometry%20x%3D%22120%22%20y%3D%22340%22%20width%3D%2270%22%20height%3D%2270%22%20as%3D%22geometry%22%2F%3E%3C%2FmxCell%3E%3CmxCell%20id%3D%227%22%20value%3D%22%22%20style%3D%22shape%3Dimage%3Bhtml%3D1%3BverticalAlign%3Dtop%3BverticalLabelPosition%3Dbottom%3BlabelBackgroundColor%3D%23ffffff%3BimageAspect%3D0%3Baspect%3Dfixed%3Bimage%3Dhttps%3A%2F%2Ficons.diagrams.net%2Ficon-cache1%2FWHCompare_Isometric_Web_Hosting___Servers-2190%2Fconnected-globe-603.svg%22%20vertex%3D%221%22%20parent%3D%221%22%3E%3CmxGeometry%20x%3D%2230%22%20y%3D%22350%22%20width%3D%2250%22%20height%3D%2250%22%20as%3D%22geometry%22%2F%3E%3C%2FmxCell%3E%3CmxCell%20id%3D%228%22%20style%3D%22edgeStyle%3DorthogonalEdgeStyle%3Brounded%3D0%3BorthogonalLoop%3D1%3BjettySize%3Dauto%3Bhtml%3D1%3BflowAnimation%3D1%3B%22%20edge%3D%221%22%20source%3D%229%22%20target%3D%226%22%20parent%3D%221%22%3E%3CmxGeometry%20relative%3D%221%22%20as%3D%22geometry%22%2F%3E%3C%2FmxCell%3E%3CmxCell%20id%3D%229%22%20value%3D%22%22%20style%3D%22sketch%3D0%3BoutlineConnect%3D0%3BfontColor%3D%23232F3E%3BgradientColor%3Dnone%3BfillColor%3D%238C4FFF%3BstrokeColor%3Dnone%3Bdashed%3D0%3BverticalLabelPosition%3Dbottom%3BverticalAlign%3Dtop%3Balign%3Dcenter%3Bhtml%3D1%3BfontSize%3D12%3BfontStyle%3D0%3Baspect%3Dfixed%3BpointerEvents%3D1%3Bshape%3Dmxgraph.aws4.nat_gateway%3B%22%20vertex%3D%221%22%20parent%3D%221%22%3E%3CmxGeometry%20x%3D%22280%22%20y%3D%22336%22%20width%3D%2278%22%20height%3D%2278%22%20as%3D%22geometry%22%2F%3E%3C%2FmxCell%3E%3CmxCell%20id%3D%2210%22%20style%3D%22edgeStyle%3DorthogonalEdgeStyle%3Brounded%3D0%3BorthogonalLoop%3D1%3BjettySize%3Dauto%3Bhtml%3D1%3BflowAnimation%3D1%3B%22%20edge%3D%221%22%20source%3D%2211%22%20target%3D%229%22%20parent%3D%221%22%3E%3CmxGeometry%20relative%3D%221%22%20as%3D%22geometry%22%2F%3E%3C%2FmxCell%3E%3CmxCell%20id%3D%2211%22%20value%3D%22%22%20style%3D%22sketch%3D0%3Bpoints%3D%5B%5B0%2C0%2C0%5D%2C%5B0.25%2C0%2C0%5D%2C%5B0.5%2C0%2C0%5D%2C%5B0.75%2C0%2C0%5D%2C%5B1%2C0%2C0%5D%2C%5B0%2C1%2C0%5D%2C%5B0.25%2C1%2C0%5D%2C%5B0.5%2C1%2C0%5D%2C%5B0.75%2C1%2C0%5D%2C%5B1%2C1%2C0%5D%2C%5B0%2C0.25%2C0%5D%2C%5B0%2C0.5%2C0%5D%2C%5B0%2C0.75%2C0%5D%2C%5B1%2C0.25%2C0%5D%2C%5B1%2C0.5%2C0%5D%2C%5B1%2C0.75%2C0%5D%5D%3BoutlineConnect%3D0%3BfontColor%3D%23232F3E%3BfillColor%3D%23ED7100%3BstrokeColor%3D%23ffffff%3Bdashed%3D0%3BverticalLabelPosition%3Dbottom%3BverticalAlign%3Dtop%3Balign%3Dcenter%3Bhtml%3D1%3BfontSize%3D12%3BfontStyle%3D0%3Baspect%3Dfixed%3Bshape%3Dmxgraph.aws4.resourceIcon%3BresIcon%3Dmxgraph.aws4.ec2%3B%22%20vertex%3D%221%22%20parent%3D%221%22%3E%3CmxGeometry%20x%3D%22560%22%20y%3D%22336%22%20width%3D%2278%22%20height%3D%2278%22%20as%3D%22geometry%22%2F%3E%3C%2FmxCell%3E%3CmxCell%20id%3D%2212%22%20value%3D%2210.0.0.0%2F16%22%20style%3D%22text%3Bhtml%3D1%3Balign%3Dcenter%3BverticalAlign%3Dmiddle%3BwhiteSpace%3Dwrap%3Brounded%3D0%3B%22%20vertex%3D%221%22%20parent%3D%221%22%3E%3CmxGeometry%20x%3D%22220%22%20y%3D%22170%22%20width%3D%2260%22%20height%3D%2230%22%20as%3D%22geometry%22%2F%3E%3C%2FmxCell%3E%3CmxCell%20id%3D%2213%22%20value%3D%2210.0.0.0%2F24%22%20style%3D%22text%3Bhtml%3D1%3Balign%3Dcenter%3BverticalAlign%3Dmiddle%3BwhiteSpace%3Dwrap%3Brounded%3D0%3B%22%20vertex%3D%221%22%20parent%3D%221%22%3E%3CmxGeometry%20x%3D%22220%22%20y%3D%22230%22%20width%3D%2260%22%20height%3D%2230%22%20as%3D%22geometry%22%2F%3E%3C%2FmxCell%3E%3CmxCell%20id%3D%2214%22%20value%3D%2210.0.1.0%2F24%22%20style%3D%22text%3Bhtml%3D1%3Balign%3Dcenter%3BverticalAlign%3Dmiddle%3BwhiteSpace%3Dwrap%3Brounded%3D0%3B%22%20vertex%3D%221%22%20parent%3D%221%22%3E%3CmxGeometry%20x%3D%22510%22%20y%3D%22230%22%20width%3D%2260%22%20height%3D%2230%22%20as%3D%22geometry%22%2F%3E%3C%2FmxCell%3E%3CmxCell%20id%3D%2215%22%20value%3D%2210.0.1.11%22%20style%3D%22text%3Bhtml%3D1%3Balign%3Dcenter%3BverticalAlign%3Dmiddle%3BwhiteSpace%3Dwrap%3Brounded%3D0%3B%22%20vertex%3D%221%22%20parent%3D%221%22%3E%3CmxGeometry%20x%3D%22569%22%20y%3D%22410%22%20width%3D%2260%22%20height%3D%2230%22%20as%3D%22geometry%22%2F%3E%3C%2FmxCell%3E%3CmxCell%20id%3D%2216%22%20value%3D%22%26lt%3Bspan%20style%3D%26quot%3Bfont-family%3A%20Times%3B%20font-size%3A%2014px%3B%20text-align%3A%20start%3B%20white-space%3A%20pre%3B%26quot%3B%26gt%3B13.233.232.148%26lt%3B%2Fspan%26gt%3B%22%20style%3D%22text%3Bhtml%3D1%3Balign%3Dcenter%3BverticalAlign%3Dmiddle%3BwhiteSpace%3Dwrap%3Brounded%3D0%3B%22%20vertex%3D%221%22%20parent%3D%221%22%3E%3CmxGeometry%20x%3D%22289%22%20y%3D%22430%22%20width%3D%2260%22%20height%3D%2230%22%20as%3D%22geometry%22%2F%3E%3C%2FmxCell%3E%3CmxCell%20id%3D%2217%22%20value%3D%22ping%20google.com%22%20style%3D%22text%3Bhtml%3D1%3Balign%3Dcenter%3BverticalAlign%3Dmiddle%3BwhiteSpace%3Dwrap%3Brounded%3D0%3B%22%20vertex%3D%221%22%20parent%3D%221%22%3E%3CmxGeometry%20x%3D%22548.5%22%20y%3D%22430%22%20width%3D%22101%22%20height%3D%2230%22%20as%3D%22geometry%22%2F%3E%3C%2FmxCell%3E%3CmxCell%20id%3D%2218%22%20value%3D%22IPv4%20to%20IPV4%22%20style%3D%22text%3Bhtml%3D1%3Balign%3Dcenter%3BverticalAlign%3Dmiddle%3BwhiteSpace%3Dwrap%3Brounded%3D0%3BfontSize%3D18%3B%22%20vertex%3D%221%22%20parent%3D%221%22%3E%3CmxGeometry%20x%3D%22370%22%20y%3D%22330%22%20width%3D%22140%22%20height%3D%2240%22%20as%3D%22geometry%22%2F%3E%3C%2FmxCell%3E%3CmxCell%20id%3D%2219%22%20value%3D%22NAT%20Gateway%22%20style%3D%22text%3Bhtml%3D1%3Balign%3Dcenter%3BverticalAlign%3Dmiddle%3BwhiteSpace%3Dwrap%3Brounded%3D0%3B%22%20vertex%3D%221%22%20parent%3D%221%22%3E%3CmxGeometry%20x%3D%22280%22%20y%3D%22410%22%20width%3D%2280%22%20height%3D%2230%22%20as%3D%22geometry%22%2F%3E%3C%2FmxCell%3E%3CmxCell%20id%3D%2220%22%20value%3D%22IGW%22%20style%3D%22text%3Bhtml%3D1%3Balign%3Dcenter%3BverticalAlign%3Dmiddle%3BwhiteSpace%3Dwrap%3Brounded%3D0%3BfontSize%3D18%3B%22%20vertex%3D%221%22%20parent%3D%221%22%3E%3CmxGeometry%20x%3D%22120%22%20y%3D%22410%22%20width%3D%2260%22%20height%3D%2230%22%20as%3D%22geometry%22%2F%3E%3C%2FmxCell%3E%3CmxCell%20id%3D%2221%22%20value%3D%22%26lt%3Bfont%20style%3D%26quot%3Bcolor%3A%20rgb(255%2C%2039%2C%206)%3B%26quot%3B%26gt%3BNo%20Inbound%20trafffic%26lt%3B%2Ffont%26gt%3B%22%20style%3D%22text%3Bhtml%3D1%3Balign%3Dcenter%3BverticalAlign%3Dmiddle%3BwhiteSpace%3Dwrap%3Brounded%3D0%3BfontSize%3D14%3B%22%20vertex%3D%221%22%20parent%3D%221%22%3E%3CmxGeometry%20y%3D%22310%22%20width%3D%22130%22%20height%3D%2230%22%20as%3D%22geometry%22%2F%3E%3C%2FmxCell%3E%3C%2Froot%3E%3C%2FmxGraphModel%3E&lt;/span&gt;" style="text;html=1;align=center;verticalAlign=middle;resizable=0;points=[];autosize=1;strokeColor=none;fillColor=none;" vertex="1" parent="1">
          <mxGeometry x="150" y="938" width="20" height="30" as="geometry" />
        </mxCell>
        <mxCell id="Vbb7sRWDn7843nfP0c7h-37" value="Public subnet" style="points=[[0,0],[0.25,0],[0.5,0],[0.75,0],[1,0],[1,0.25],[1,0.5],[1,0.75],[1,1],[0.75,1],[0.5,1],[0.25,1],[0,1],[0,0.75],[0,0.5],[0,0.25]];outlineConnect=0;gradientColor=none;html=1;whiteSpace=wrap;fontSize=12;fontStyle=0;container=1;pointerEvents=0;collapsible=0;recursiveResize=0;shape=mxgraph.aws4.group;grIcon=mxgraph.aws4.group_security_group;grStroke=0;strokeColor=#7AA116;fillColor=#F2F6E8;verticalAlign=top;align=left;spacingLeft=30;fontColor=#248814;dashed=0;" vertex="1" parent="1">
          <mxGeometry x="210" y="1000" width="220" height="380" as="geometry" />
        </mxCell>
        <mxCell id="Vbb7sRWDn7843nfP0c7h-38" value="Private subnet" style="points=[[0,0],[0.25,0],[0.5,0],[0.75,0],[1,0],[1,0.25],[1,0.5],[1,0.75],[1,1],[0.75,1],[0.5,1],[0.25,1],[0,1],[0,0.75],[0,0.5],[0,0.25]];outlineConnect=0;gradientColor=none;html=1;whiteSpace=wrap;fontSize=12;fontStyle=0;container=1;pointerEvents=0;collapsible=0;recursiveResize=0;shape=mxgraph.aws4.group;grIcon=mxgraph.aws4.group_security_group;grStroke=0;strokeColor=#00A4A6;fillColor=#E6F6F7;verticalAlign=top;align=left;spacingLeft=30;fontColor=#147EBA;dashed=0;" vertex="1" parent="1">
          <mxGeometry x="490" y="1000" width="230" height="380" as="geometry" />
        </mxCell>
        <mxCell id="Vbb7sRWDn7843nfP0c7h-39" value="VPC" style="sketch=0;outlineConnect=0;gradientColor=none;html=1;whiteSpace=wrap;fontSize=12;fontStyle=0;shape=mxgraph.aws4.group;grIcon=mxgraph.aws4.group_vpc;strokeColor=#879196;fillColor=none;verticalAlign=top;align=left;spacingLeft=30;fontColor=#879196;dashed=0;" vertex="1" parent="1">
          <mxGeometry x="170" y="960" width="580" height="450" as="geometry" />
        </mxCell>
        <mxCell id="Vbb7sRWDn7843nfP0c7h-40" value="" style="edgeStyle=orthogonalEdgeStyle;rounded=0;orthogonalLoop=1;jettySize=auto;html=1;flowAnimation=1;" edge="1" parent="1" source="Vbb7sRWDn7843nfP0c7h-41" target="Vbb7sRWDn7843nfP0c7h-42">
          <mxGeometry relative="1" as="geometry" />
        </mxCell>
        <mxCell id="Vbb7sRWDn7843nfP0c7h-41" value="" style="sketch=0;outlineConnect=0;fontColor=#232F3E;gradientColor=none;fillColor=#8C4FFF;strokeColor=none;dashed=0;verticalLabelPosition=bottom;verticalAlign=top;align=center;html=1;fontSize=12;fontStyle=0;aspect=fixed;pointerEvents=1;shape=mxgraph.aws4.internet_gateway;" vertex="1" parent="1">
          <mxGeometry x="140" y="1130" width="70" height="70" as="geometry" />
        </mxCell>
        <mxCell id="Vbb7sRWDn7843nfP0c7h-42" value="" style="shape=image;html=1;verticalAlign=top;verticalLabelPosition=bottom;labelBackgroundColor=#ffffff;imageAspect=0;aspect=fixed;image=https://icons.diagrams.net/icon-cache1/WHCompare_Isometric_Web_Hosting___Servers-2190/connected-globe-603.svg" vertex="1" parent="1">
          <mxGeometry x="50" y="1140" width="50" height="50" as="geometry" />
        </mxCell>
        <mxCell id="Vbb7sRWDn7843nfP0c7h-43" style="edgeStyle=orthogonalEdgeStyle;rounded=0;orthogonalLoop=1;jettySize=auto;html=1;flowAnimation=1;" edge="1" parent="1" source="Vbb7sRWDn7843nfP0c7h-44" target="Vbb7sRWDn7843nfP0c7h-41">
          <mxGeometry relative="1" as="geometry" />
        </mxCell>
        <mxCell id="Vbb7sRWDn7843nfP0c7h-44" value="" style="sketch=0;outlineConnect=0;fontColor=#232F3E;gradientColor=none;fillColor=#8C4FFF;strokeColor=none;dashed=0;verticalLabelPosition=bottom;verticalAlign=top;align=center;html=1;fontSize=12;fontStyle=0;aspect=fixed;pointerEvents=1;shape=mxgraph.aws4.nat_gateway;" vertex="1" parent="1">
          <mxGeometry x="300" y="1126" width="78" height="78" as="geometry" />
        </mxCell>
        <mxCell id="Vbb7sRWDn7843nfP0c7h-45" style="edgeStyle=orthogonalEdgeStyle;rounded=0;orthogonalLoop=1;jettySize=auto;html=1;flowAnimation=1;" edge="1" parent="1" source="Vbb7sRWDn7843nfP0c7h-46" target="Vbb7sRWDn7843nfP0c7h-44">
          <mxGeometry relative="1" as="geometry" />
        </mxCell>
        <mxCell id="Vbb7sRWDn7843nfP0c7h-46" value="" style="sketch=0;points=[[0,0,0],[0.25,0,0],[0.5,0,0],[0.75,0,0],[1,0,0],[0,1,0],[0.25,1,0],[0.5,1,0],[0.75,1,0],[1,1,0],[0,0.25,0],[0,0.5,0],[0,0.75,0],[1,0.25,0],[1,0.5,0],[1,0.75,0]];outlineConnect=0;fontColor=#232F3E;fillColor=#ED7100;strokeColor=#ffffff;dashed=0;verticalLabelPosition=bottom;verticalAlign=top;align=center;html=1;fontSize=12;fontStyle=0;aspect=fixed;shape=mxgraph.aws4.resourceIcon;resIcon=mxgraph.aws4.ec2;" vertex="1" parent="1">
          <mxGeometry x="580" y="1126" width="78" height="78" as="geometry" />
        </mxCell>
        <mxCell id="Vbb7sRWDn7843nfP0c7h-47" value="10.0.0.0/16" style="text;html=1;align=center;verticalAlign=middle;whiteSpace=wrap;rounded=0;" vertex="1" parent="1">
          <mxGeometry x="240" y="960" width="60" height="30" as="geometry" />
        </mxCell>
        <mxCell id="Vbb7sRWDn7843nfP0c7h-48" value="10.0.0.0/24" style="text;html=1;align=center;verticalAlign=middle;whiteSpace=wrap;rounded=0;" vertex="1" parent="1">
          <mxGeometry x="240" y="1020" width="60" height="30" as="geometry" />
        </mxCell>
        <mxCell id="Vbb7sRWDn7843nfP0c7h-49" value="10.0.1.0/24" style="text;html=1;align=center;verticalAlign=middle;whiteSpace=wrap;rounded=0;" vertex="1" parent="1">
          <mxGeometry x="530" y="1020" width="60" height="30" as="geometry" />
        </mxCell>
        <mxCell id="Vbb7sRWDn7843nfP0c7h-50" value="10.0.1.11" style="text;html=1;align=center;verticalAlign=middle;whiteSpace=wrap;rounded=0;" vertex="1" parent="1">
          <mxGeometry x="589" y="1200" width="60" height="30" as="geometry" />
        </mxCell>
        <mxCell id="Vbb7sRWDn7843nfP0c7h-51" value="&lt;span style=&quot;font-family: Times; font-size: 14px; text-align: start; white-space: pre;&quot;&gt;13.233.232.148&lt;/span&gt;" style="text;html=1;align=center;verticalAlign=middle;whiteSpace=wrap;rounded=0;" vertex="1" parent="1">
          <mxGeometry x="309" y="1220" width="60" height="30" as="geometry" />
        </mxCell>
        <mxCell id="Vbb7sRWDn7843nfP0c7h-52" value="ping google.com" style="text;html=1;align=center;verticalAlign=middle;whiteSpace=wrap;rounded=0;" vertex="1" parent="1">
          <mxGeometry x="568.5" y="1220" width="101" height="30" as="geometry" />
        </mxCell>
        <mxCell id="Vbb7sRWDn7843nfP0c7h-53" value="IPv4 to IPV4" style="text;html=1;align=center;verticalAlign=middle;whiteSpace=wrap;rounded=0;fontSize=18;" vertex="1" parent="1">
          <mxGeometry x="390" y="1120" width="140" height="40" as="geometry" />
        </mxCell>
        <mxCell id="Vbb7sRWDn7843nfP0c7h-54" value="NAT Gateway" style="text;html=1;align=center;verticalAlign=middle;whiteSpace=wrap;rounded=0;" vertex="1" parent="1">
          <mxGeometry x="300" y="1200" width="80" height="30" as="geometry" />
        </mxCell>
        <mxCell id="Vbb7sRWDn7843nfP0c7h-55" value="IGW" style="text;html=1;align=center;verticalAlign=middle;whiteSpace=wrap;rounded=0;fontSize=18;" vertex="1" parent="1">
          <mxGeometry x="140" y="1200" width="60" height="30" as="geometry" />
        </mxCell>
        <mxCell id="Vbb7sRWDn7843nfP0c7h-56" value="&lt;font style=&quot;color: rgb(255, 39, 6);&quot;&gt;No Inbound trafffic&lt;/font&gt;" style="text;html=1;align=center;verticalAlign=middle;whiteSpace=wrap;rounded=0;fontSize=14;" vertex="1" parent="1">
          <mxGeometry x="20" y="1100" width="130" height="30" as="geometry" />
        </mxCell>
        <mxCell id="Vbb7sRWDn7843nfP0c7h-57" value="&lt;span style=&quot;color: rgba(0, 0, 0, 0); font-family: monospace; font-size: 0px; text-align: start;&quot;&gt;%3CmxGraphModel%3E%3Croot%3E%3CmxCell%20id%3D%220%22%2F%3E%3CmxCell%20id%3D%221%22%20parent%3D%220%22%2F%3E%3CmxCell%20id%3D%222%22%20value%3D%22Public%20subnet%22%20style%3D%22points%3D%5B%5B0%2C0%5D%2C%5B0.25%2C0%5D%2C%5B0.5%2C0%5D%2C%5B0.75%2C0%5D%2C%5B1%2C0%5D%2C%5B1%2C0.25%5D%2C%5B1%2C0.5%5D%2C%5B1%2C0.75%5D%2C%5B1%2C1%5D%2C%5B0.75%2C1%5D%2C%5B0.5%2C1%5D%2C%5B0.25%2C1%5D%2C%5B0%2C1%5D%2C%5B0%2C0.75%5D%2C%5B0%2C0.5%5D%2C%5B0%2C0.25%5D%5D%3BoutlineConnect%3D0%3BgradientColor%3Dnone%3Bhtml%3D1%3BwhiteSpace%3Dwrap%3BfontSize%3D12%3BfontStyle%3D0%3Bcontainer%3D1%3BpointerEvents%3D0%3Bcollapsible%3D0%3BrecursiveResize%3D0%3Bshape%3Dmxgraph.aws4.group%3BgrIcon%3Dmxgraph.aws4.group_security_group%3BgrStroke%3D0%3BstrokeColor%3D%237AA116%3BfillColor%3D%23F2F6E8%3BverticalAlign%3Dtop%3Balign%3Dleft%3BspacingLeft%3D30%3BfontColor%3D%23248814%3Bdashed%3D0%3B%22%20vertex%3D%221%22%20parent%3D%221%22%3E%3CmxGeometry%20x%3D%22190%22%20y%3D%22210%22%20width%3D%22220%22%20height%3D%22380%22%20as%3D%22geometry%22%2F%3E%3C%2FmxCell%3E%3CmxCell%20id%3D%223%22%20value%3D%22Private%20subnet%22%20style%3D%22points%3D%5B%5B0%2C0%5D%2C%5B0.25%2C0%5D%2C%5B0.5%2C0%5D%2C%5B0.75%2C0%5D%2C%5B1%2C0%5D%2C%5B1%2C0.25%5D%2C%5B1%2C0.5%5D%2C%5B1%2C0.75%5D%2C%5B1%2C1%5D%2C%5B0.75%2C1%5D%2C%5B0.5%2C1%5D%2C%5B0.25%2C1%5D%2C%5B0%2C1%5D%2C%5B0%2C0.75%5D%2C%5B0%2C0.5%5D%2C%5B0%2C0.25%5D%5D%3BoutlineConnect%3D0%3BgradientColor%3Dnone%3Bhtml%3D1%3BwhiteSpace%3Dwrap%3BfontSize%3D12%3BfontStyle%3D0%3Bcontainer%3D1%3BpointerEvents%3D0%3Bcollapsible%3D0%3BrecursiveResize%3D0%3Bshape%3Dmxgraph.aws4.group%3BgrIcon%3Dmxgraph.aws4.group_security_group%3BgrStroke%3D0%3BstrokeColor%3D%2300A4A6%3BfillColor%3D%23E6F6F7%3BverticalAlign%3Dtop%3Balign%3Dleft%3BspacingLeft%3D30%3BfontColor%3D%23147EBA%3Bdashed%3D0%3B%22%20vertex%3D%221%22%20parent%3D%221%22%3E%3CmxGeometry%20x%3D%22470%22%20y%3D%22210%22%20width%3D%22230%22%20height%3D%22380%22%20as%3D%22geometry%22%2F%3E%3C%2FmxCell%3E%3CmxCell%20id%3D%224%22%20value%3D%22VPC%22%20style%3D%22sketch%3D0%3BoutlineConnect%3D0%3BgradientColor%3Dnone%3Bhtml%3D1%3BwhiteSpace%3Dwrap%3BfontSize%3D12%3BfontStyle%3D0%3Bshape%3Dmxgraph.aws4.group%3BgrIcon%3Dmxgraph.aws4.group_vpc%3BstrokeColor%3D%23879196%3BfillColor%3Dnone%3BverticalAlign%3Dtop%3Balign%3Dleft%3BspacingLeft%3D30%3BfontColor%3D%23879196%3Bdashed%3D0%3B%22%20vertex%3D%221%22%20parent%3D%221%22%3E%3CmxGeometry%20x%3D%22150%22%20y%3D%22170%22%20width%3D%22580%22%20height%3D%22450%22%20as%3D%22geometry%22%2F%3E%3C%2FmxCell%3E%3CmxCell%20id%3D%225%22%20value%3D%22%22%20style%3D%22edgeStyle%3DorthogonalEdgeStyle%3Brounded%3D0%3BorthogonalLoop%3D1%3BjettySize%3Dauto%3Bhtml%3D1%3BflowAnimation%3D1%3B%22%20edge%3D%221%22%20source%3D%226%22%20target%3D%227%22%20parent%3D%221%22%3E%3CmxGeometry%20relative%3D%221%22%20as%3D%22geometry%22%2F%3E%3C%2FmxCell%3E%3CmxCell%20id%3D%226%22%20value%3D%22%22%20style%3D%22sketch%3D0%3BoutlineConnect%3D0%3BfontColor%3D%23232F3E%3BgradientColor%3Dnone%3BfillColor%3D%238C4FFF%3BstrokeColor%3Dnone%3Bdashed%3D0%3BverticalLabelPosition%3Dbottom%3BverticalAlign%3Dtop%3Balign%3Dcenter%3Bhtml%3D1%3BfontSize%3D12%3BfontStyle%3D0%3Baspect%3Dfixed%3BpointerEvents%3D1%3Bshape%3Dmxgraph.aws4.internet_gateway%3B%22%20vertex%3D%221%22%20parent%3D%221%22%3E%3CmxGeometry%20x%3D%22120%22%20y%3D%22340%22%20width%3D%2270%22%20height%3D%2270%22%20as%3D%22geometry%22%2F%3E%3C%2FmxCell%3E%3CmxCell%20id%3D%227%22%20value%3D%22%22%20style%3D%22shape%3Dimage%3Bhtml%3D1%3BverticalAlign%3Dtop%3BverticalLabelPosition%3Dbottom%3BlabelBackgroundColor%3D%23ffffff%3BimageAspect%3D0%3Baspect%3Dfixed%3Bimage%3Dhttps%3A%2F%2Ficons.diagrams.net%2Ficon-cache1%2FWHCompare_Isometric_Web_Hosting___Servers-2190%2Fconnected-globe-603.svg%22%20vertex%3D%221%22%20parent%3D%221%22%3E%3CmxGeometry%20x%3D%2230%22%20y%3D%22350%22%20width%3D%2250%22%20height%3D%2250%22%20as%3D%22geometry%22%2F%3E%3C%2FmxCell%3E%3CmxCell%20id%3D%228%22%20style%3D%22edgeStyle%3DorthogonalEdgeStyle%3Brounded%3D0%3BorthogonalLoop%3D1%3BjettySize%3Dauto%3Bhtml%3D1%3BflowAnimation%3D1%3B%22%20edge%3D%221%22%20source%3D%229%22%20target%3D%226%22%20parent%3D%221%22%3E%3CmxGeometry%20relative%3D%221%22%20as%3D%22geometry%22%2F%3E%3C%2FmxCell%3E%3CmxCell%20id%3D%229%22%20value%3D%22%22%20style%3D%22sketch%3D0%3BoutlineConnect%3D0%3BfontColor%3D%23232F3E%3BgradientColor%3Dnone%3BfillColor%3D%238C4FFF%3BstrokeColor%3Dnone%3Bdashed%3D0%3BverticalLabelPosition%3Dbottom%3BverticalAlign%3Dtop%3Balign%3Dcenter%3Bhtml%3D1%3BfontSize%3D12%3BfontStyle%3D0%3Baspect%3Dfixed%3BpointerEvents%3D1%3Bshape%3Dmxgraph.aws4.nat_gateway%3B%22%20vertex%3D%221%22%20parent%3D%221%22%3E%3CmxGeometry%20x%3D%22280%22%20y%3D%22336%22%20width%3D%2278%22%20height%3D%2278%22%20as%3D%22geometry%22%2F%3E%3C%2FmxCell%3E%3CmxCell%20id%3D%2210%22%20style%3D%22edgeStyle%3DorthogonalEdgeStyle%3Brounded%3D0%3BorthogonalLoop%3D1%3BjettySize%3Dauto%3Bhtml%3D1%3BflowAnimation%3D1%3B%22%20edge%3D%221%22%20source%3D%2211%22%20target%3D%229%22%20parent%3D%221%22%3E%3CmxGeometry%20relative%3D%221%22%20as%3D%22geometry%22%2F%3E%3C%2FmxCell%3E%3CmxCell%20id%3D%2211%22%20value%3D%22%22%20style%3D%22sketch%3D0%3Bpoints%3D%5B%5B0%2C0%2C0%5D%2C%5B0.25%2C0%2C0%5D%2C%5B0.5%2C0%2C0%5D%2C%5B0.75%2C0%2C0%5D%2C%5B1%2C0%2C0%5D%2C%5B0%2C1%2C0%5D%2C%5B0.25%2C1%2C0%5D%2C%5B0.5%2C1%2C0%5D%2C%5B0.75%2C1%2C0%5D%2C%5B1%2C1%2C0%5D%2C%5B0%2C0.25%2C0%5D%2C%5B0%2C0.5%2C0%5D%2C%5B0%2C0.75%2C0%5D%2C%5B1%2C0.25%2C0%5D%2C%5B1%2C0.5%2C0%5D%2C%5B1%2C0.75%2C0%5D%5D%3BoutlineConnect%3D0%3BfontColor%3D%23232F3E%3BfillColor%3D%23ED7100%3BstrokeColor%3D%23ffffff%3Bdashed%3D0%3BverticalLabelPosition%3Dbottom%3BverticalAlign%3Dtop%3Balign%3Dcenter%3Bhtml%3D1%3BfontSize%3D12%3BfontStyle%3D0%3Baspect%3Dfixed%3Bshape%3Dmxgraph.aws4.resourceIcon%3BresIcon%3Dmxgraph.aws4.ec2%3B%22%20vertex%3D%221%22%20parent%3D%221%22%3E%3CmxGeometry%20x%3D%22560%22%20y%3D%22336%22%20width%3D%2278%22%20height%3D%2278%22%20as%3D%22geometry%22%2F%3E%3C%2FmxCell%3E%3CmxCell%20id%3D%2212%22%20value%3D%2210.0.0.0%2F16%22%20style%3D%22text%3Bhtml%3D1%3Balign%3Dcenter%3BverticalAlign%3Dmiddle%3BwhiteSpace%3Dwrap%3Brounded%3D0%3B%22%20vertex%3D%221%22%20parent%3D%221%22%3E%3CmxGeometry%20x%3D%22220%22%20y%3D%22170%22%20width%3D%2260%22%20height%3D%2230%22%20as%3D%22geometry%22%2F%3E%3C%2FmxCell%3E%3CmxCell%20id%3D%2213%22%20value%3D%2210.0.0.0%2F24%22%20style%3D%22text%3Bhtml%3D1%3Balign%3Dcenter%3BverticalAlign%3Dmiddle%3BwhiteSpace%3Dwrap%3Brounded%3D0%3B%22%20vertex%3D%221%22%20parent%3D%221%22%3E%3CmxGeometry%20x%3D%22220%22%20y%3D%22230%22%20width%3D%2260%22%20height%3D%2230%22%20as%3D%22geometry%22%2F%3E%3C%2FmxCell%3E%3CmxCell%20id%3D%2214%22%20value%3D%2210.0.1.0%2F24%22%20style%3D%22text%3Bhtml%3D1%3Balign%3Dcenter%3BverticalAlign%3Dmiddle%3BwhiteSpace%3Dwrap%3Brounded%3D0%3B%22%20vertex%3D%221%22%20parent%3D%221%22%3E%3CmxGeometry%20x%3D%22510%22%20y%3D%22230%22%20width%3D%2260%22%20height%3D%2230%22%20as%3D%22geometry%22%2F%3E%3C%2FmxCell%3E%3CmxCell%20id%3D%2215%22%20value%3D%2210.0.1.11%22%20style%3D%22text%3Bhtml%3D1%3Balign%3Dcenter%3BverticalAlign%3Dmiddle%3BwhiteSpace%3Dwrap%3Brounded%3D0%3B%22%20vertex%3D%221%22%20parent%3D%221%22%3E%3CmxGeometry%20x%3D%22569%22%20y%3D%22410%22%20width%3D%2260%22%20height%3D%2230%22%20as%3D%22geometry%22%2F%3E%3C%2FmxCell%3E%3CmxCell%20id%3D%2216%22%20value%3D%22%26lt%3Bspan%20style%3D%26quot%3Bfont-family%3A%20Times%3B%20font-size%3A%2014px%3B%20text-align%3A%20start%3B%20white-space%3A%20pre%3B%26quot%3B%26gt%3B13.233.232.148%26lt%3B%2Fspan%26gt%3B%22%20style%3D%22text%3Bhtml%3D1%3Balign%3Dcenter%3BverticalAlign%3Dmiddle%3BwhiteSpace%3Dwrap%3Brounded%3D0%3B%22%20vertex%3D%221%22%20parent%3D%221%22%3E%3CmxGeometry%20x%3D%22289%22%20y%3D%22430%22%20width%3D%2260%22%20height%3D%2230%22%20as%3D%22geometry%22%2F%3E%3C%2FmxCell%3E%3CmxCell%20id%3D%2217%22%20value%3D%22ping%20google.com%22%20style%3D%22text%3Bhtml%3D1%3Balign%3Dcenter%3BverticalAlign%3Dmiddle%3BwhiteSpace%3Dwrap%3Brounded%3D0%3B%22%20vertex%3D%221%22%20parent%3D%221%22%3E%3CmxGeometry%20x%3D%22548.5%22%20y%3D%22430%22%20width%3D%22101%22%20height%3D%2230%22%20as%3D%22geometry%22%2F%3E%3C%2FmxCell%3E%3CmxCell%20id%3D%2218%22%20value%3D%22IPv4%20to%20IPV4%22%20style%3D%22text%3Bhtml%3D1%3Balign%3Dcenter%3BverticalAlign%3Dmiddle%3BwhiteSpace%3Dwrap%3Brounded%3D0%3BfontSize%3D18%3B%22%20vertex%3D%221%22%20parent%3D%221%22%3E%3CmxGeometry%20x%3D%22370%22%20y%3D%22330%22%20width%3D%22140%22%20height%3D%2240%22%20as%3D%22geometry%22%2F%3E%3C%2FmxCell%3E%3CmxCell%20id%3D%2219%22%20value%3D%22NAT%20Gateway%22%20style%3D%22text%3Bhtml%3D1%3Balign%3Dcenter%3BverticalAlign%3Dmiddle%3BwhiteSpace%3Dwrap%3Brounded%3D0%3B%22%20vertex%3D%221%22%20parent%3D%221%22%3E%3CmxGeometry%20x%3D%22280%22%20y%3D%22410%22%20width%3D%2280%22%20height%3D%2230%22%20as%3D%22geometry%22%2F%3E%3C%2FmxCell%3E%3CmxCell%20id%3D%2220%22%20value%3D%22IGW%22%20style%3D%22text%3Bhtml%3D1%3Balign%3Dcenter%3BverticalAlign%3Dmiddle%3BwhiteSpace%3Dwrap%3Brounded%3D0%3BfontSize%3D18%3B%22%20vertex%3D%221%22%20parent%3D%221%22%3E%3CmxGeometry%20x%3D%22120%22%20y%3D%22410%22%20width%3D%2260%22%20height%3D%2230%22%20as%3D%22geometry%22%2F%3E%3C%2FmxCell%3E%3CmxCell%20id%3D%2221%22%20value%3D%22%26lt%3Bfont%20style%3D%26quot%3Bcolor%3A%20rgb(255%2C%2039%2C%206)%3B%26quot%3B%26gt%3BNo%20Inbound%20trafffic%26lt%3B%2Ffont%26gt%3B%22%20style%3D%22text%3Bhtml%3D1%3Balign%3Dcenter%3BverticalAlign%3Dmiddle%3BwhiteSpace%3Dwrap%3Brounded%3D0%3BfontSize%3D14%3B%22%20vertex%3D%221%22%20parent%3D%221%22%3E%3CmxGeometry%20y%3D%22310%22%20width%3D%22130%22%20height%3D%2230%22%20as%3D%22geometry%22%2F%3E%3C%2FmxCell%3E%3C%2Froot%3E%3C%2FmxGraphModel%3E&lt;/span&gt;" style="text;html=1;align=center;verticalAlign=middle;resizable=0;points=[];autosize=1;strokeColor=none;fillColor=none;" vertex="1" parent="1">
          <mxGeometry x="170" y="1728" width="20" height="30" as="geometry" />
        </mxCell>
        <mxCell id="Vbb7sRWDn7843nfP0c7h-58" value="public CIDR :&amp;nbsp;2406:da1a:675:e300::/64&lt;div&gt;private :&amp;nbsp;2406:da1a:675:e301::/64&lt;/div&gt;" style="text;html=1;align=center;verticalAlign=middle;resizable=0;points=[];autosize=1;strokeColor=none;fillColor=none;" vertex="1" parent="1">
          <mxGeometry x="85" y="793" width="230" height="40" as="geometry" />
        </mxCell>
      </root>
    </mxGraphModel>
  </diagram>
</mxfile>
